<svg width="596" height="498" viewBox="0 0 596 498" fill="none" xmlns="http://www.w3.org/2000/svg">
<path d="M279.943 498C409.939 498 515.322 492.614 515.322 485.971C515.322 479.327 409.939 473.942 279.943 473.942C149.947 473.942 44.5639 479.327 44.5639 485.971C44.5639 492.614 149.947 498 279.943 498Z" fill="#F2F2F2"/>
<path d="M417.461 115.578H414.787V42.3704C414.787 31.1331 410.321 20.356 402.37 12.41C394.419 4.46403 383.635 1.24068e-05 372.391 0H217.197C205.953 -2.12687e-05 195.169 4.46395 187.218 12.4099C179.268 20.3559 174.801 31.1329 174.801 42.3702V443.991C174.801 455.228 179.267 466.005 187.218 473.951C195.169 481.897 205.953 486.361 217.197 486.361H372.391C383.635 486.361 394.419 481.897 402.37 473.951C410.32 466.005 414.787 455.228 414.787 443.991V167.688H417.461L417.461 115.578Z" fill="#3F3D56"/>
<path d="M405.763 42.666V443.695C405.763 452.088 402.427 460.136 396.49 466.07C390.552 472.005 382.498 475.338 374.101 475.338H218.162C209.765 475.338 201.712 472.005 195.774 466.07C189.836 460.136 186.5 452.088 186.5 443.695V42.666C186.5 34.2738 189.836 26.2253 195.774 20.2911C201.712 14.3569 209.765 11.023 218.162 11.0228H237.08C236.15 13.3057 235.796 15.7818 236.049 18.2335C236.302 20.6851 237.153 23.0371 238.529 25.0826C239.905 27.1281 241.762 28.8044 243.938 29.964C246.114 31.1237 248.542 31.7311 251.008 31.7329H339.917C342.384 31.7311 344.812 31.1236 346.988 29.964C349.164 28.8043 351.021 27.1281 352.397 25.0826C353.773 23.0371 354.624 20.6851 354.877 18.2334C355.13 15.7818 354.776 13.3057 353.846 11.0228H374.101C382.498 11.023 390.552 14.3569 396.49 20.2911C402.427 26.2253 405.763 34.2738 405.763 42.666Z" fill="white"/>
<path d="M355.528 215.588C354.491 216.129 353.436 216.642 352.364 217.125C351.388 217.566 350.396 217.98 349.389 218.368C349.021 218.508 348.647 218.649 348.272 218.789C345.311 219.862 342.271 220.7 339.178 221.295C337.647 221.596 336.095 221.832 334.524 222.004C333.227 222.151 331.916 222.255 330.592 222.318C329.649 222.364 328.706 222.384 327.757 222.384C323.996 222.386 320.244 222.035 316.55 221.335C315.586 221.162 314.644 220.954 313.701 220.727C309.14 219.635 304.725 218.006 300.548 215.875C300.173 215.688 299.799 215.488 299.424 215.294C298.869 215 298.328 214.693 297.786 214.372C298.047 214.011 298.328 213.657 298.615 213.309C301.744 209.434 305.655 206.261 310.093 203.997C314.531 201.734 319.397 200.43 324.373 200.172C329.349 199.913 334.323 200.706 338.972 202.497C343.621 204.289 347.841 207.039 351.355 210.569C352.574 211.792 353.705 213.101 354.738 214.485C355.012 214.846 355.273 215.214 355.528 215.588Z" fill="#6C63FF"/>
<path d="M329.091 186.232C345.307 186.232 358.453 173.095 358.453 156.888C358.453 140.682 345.307 127.544 329.091 127.544C312.875 127.544 299.729 140.682 299.729 156.888C299.729 173.095 312.875 186.232 329.091 186.232Z" fill="#2F2E41"/>
<path d="M336.901 186.274C347.491 180.488 351.383 167.218 345.594 156.634C339.805 146.051 326.527 142.161 315.936 147.946C305.346 153.732 301.454 167.002 307.243 177.586C313.032 188.17 326.31 192.059 336.901 186.274Z" fill="#A0616A"/>
<path d="M349.381 153.373C344.388 156.813 338.46 158.643 332.395 158.619C334.559 160.118 337.022 161.131 339.614 161.587C331.551 163.316 323.216 163.363 315.134 161.725C313.337 161.437 311.603 160.842 310.009 159.966C309.214 159.522 308.522 158.916 307.977 158.188C307.432 157.46 307.047 156.625 306.846 155.738C306.309 152.671 308.699 149.885 311.184 148.008C314.988 145.177 319.375 143.226 324.026 142.298C328.676 141.369 333.476 141.485 338.077 142.637C341.081 143.413 344.09 144.724 346.041 147.135C347.992 149.546 348.57 153.263 346.711 155.746L349.381 153.373Z" fill="#2F2E41"/>
<path d="M327.757 102.094C314.632 102.092 301.866 106.379 291.405 114.301C280.945 122.223 273.363 133.346 269.815 145.975C266.267 158.603 266.948 172.045 271.754 184.251C276.56 196.457 285.227 206.757 296.435 213.583L296.823 213.81C297.144 214.004 297.465 214.191 297.786 214.372C298.328 214.693 298.869 215 299.424 215.294C299.799 215.488 300.173 215.688 300.548 215.875C304.725 218.006 309.14 219.635 313.701 220.727C314.644 220.954 315.586 221.161 316.55 221.335C320.244 222.035 323.996 222.386 327.757 222.384C328.706 222.384 329.649 222.364 330.592 222.318C331.916 222.257 333.227 222.153 334.524 222.004C336.095 221.83 337.647 221.594 339.178 221.295C342.271 220.7 345.312 219.862 348.272 218.789C348.647 218.649 349.021 218.508 349.389 218.368C350.398 217.98 351.39 217.566 352.364 217.125C353.434 216.644 354.489 216.132 355.528 215.588C365.937 210.14 374.541 201.789 380.296 191.55C380.322 191.497 380.356 191.443 380.383 191.39C383.453 185.884 385.631 179.927 386.836 173.74C388.527 165.031 388.271 156.055 386.085 147.456C383.899 138.858 379.838 130.848 374.193 124.001C368.547 117.155 361.456 111.64 353.428 107.853C345.401 104.065 336.634 102.099 327.757 102.094H327.757ZM379.286 190.608C379.232 190.701 379.186 190.795 379.132 190.882C373.493 200.97 365.01 209.178 354.738 214.485C353.715 215.02 352.674 215.521 351.616 215.989C350.74 216.383 349.844 216.758 348.941 217.105C348.559 217.252 348.172 217.399 347.784 217.533C345.226 218.466 342.605 219.217 339.94 219.778C337.964 220.199 335.966 220.513 333.955 220.72C332.718 220.854 331.461 220.948 330.197 220.994C329.388 221.028 328.573 221.048 327.757 221.048C324.118 221.052 320.486 220.714 316.911 220.039C314.735 219.638 312.585 219.111 310.471 218.462C307.25 217.467 304.121 216.2 301.116 214.672C300.768 214.492 300.421 214.312 300.079 214.124C299.591 213.864 299.097 213.597 298.615 213.309C298.254 213.109 297.893 212.895 297.539 212.681C297.331 212.561 297.124 212.434 296.917 212.307C287.09 206.276 279.251 197.494 274.373 187.051C269.495 176.609 267.792 164.964 269.475 153.563C271.159 142.162 276.154 131.505 283.842 122.916C291.531 114.326 301.573 108.181 312.724 105.244C323.875 102.306 335.643 102.705 346.57 106.391C357.496 110.077 367.098 116.888 374.187 125.978C381.275 135.069 385.537 146.039 386.443 157.528C387.35 169.017 384.861 180.519 379.286 190.608H379.286Z" fill="#3F3D56"/>
<path d="M314.222 127.949C313.906 124.629 309.836 122.585 306.654 123.588C303.471 124.591 301.382 127.793 300.75 131.068C300.446 132.447 300.418 133.873 300.666 135.263C300.915 136.653 301.435 137.981 302.198 139.169C303.807 141.483 306.763 142.927 309.52 142.34C312.668 141.669 314.849 138.598 315.473 135.442C316.096 132.287 315.477 129.034 314.858 125.878L314.222 127.949Z" fill="#2F2E41"/>
<path d="M359.013 132.692C358.697 129.372 354.627 127.328 351.444 128.331C348.262 129.334 346.172 132.536 345.541 135.811C345.237 137.19 345.208 138.616 345.457 140.006C345.705 141.396 346.226 142.723 346.989 143.912C348.597 146.226 351.554 147.67 354.311 147.083C357.458 146.412 359.639 143.34 360.263 140.185C360.887 137.03 360.267 133.777 359.649 130.62L359.013 132.692Z" fill="#2F2E41"/>
<path d="M223.733 186.276C223.316 186.276 222.905 186.189 222.524 186.02C222.143 185.852 221.802 185.605 221.522 185.298L188.34 149.121C187.963 148.712 187.506 148.385 186.997 148.161C186.487 147.937 185.937 147.821 185.38 147.82H10.0366C7.37561 147.817 4.82451 146.759 2.94294 144.879C1.06137 142.998 0.00299138 140.449 3.8147e-06 137.789V74.5951C0.00298961 71.9358 1.06137 69.3862 2.94294 67.5058C4.82451 65.6254 7.37561 64.5676 10.0366 64.5647H237.207C239.868 64.5676 242.419 65.6254 244.301 67.5058C246.183 69.3862 247.241 71.9358 247.244 74.5951V137.79C247.241 140.449 246.183 142.998 244.301 144.879C242.419 146.759 239.868 147.817 237.207 147.82H230.767C229.702 147.821 228.682 148.244 227.929 148.997C227.176 149.749 226.753 150.769 226.752 151.833V183.264C226.754 183.871 226.572 184.464 226.229 184.965C225.887 185.466 225.399 185.851 224.833 186.068C224.482 186.205 224.109 186.276 223.733 186.276Z" fill="white"/>
<path d="M223.733 186.276C223.316 186.276 222.905 186.189 222.524 186.02C222.143 185.852 221.802 185.605 221.522 185.298L188.34 149.121C187.963 148.712 187.506 148.385 186.997 148.161C186.487 147.937 185.937 147.821 185.38 147.82H10.0366C7.37561 147.817 4.82451 146.759 2.94294 144.879C1.06137 142.998 0.00299138 140.449 3.8147e-06 137.789V74.5951C0.00298961 71.9358 1.06137 69.3862 2.94294 67.5058C4.82451 65.6254 7.37561 64.5676 10.0366 64.5647H237.207C239.868 64.5676 242.419 65.6254 244.301 67.5058C246.183 69.3862 247.241 71.9358 247.244 74.5951V137.79C247.241 140.449 246.183 142.998 244.301 144.879C242.419 146.759 239.868 147.817 237.207 147.82H230.767C229.702 147.821 228.682 148.244 227.929 148.997C227.176 149.749 226.753 150.769 226.752 151.833V183.264C226.754 183.871 226.572 184.464 226.229 184.965C225.887 185.466 225.399 185.851 224.833 186.068C224.482 186.205 224.109 186.276 223.733 186.276ZM10.0366 65.9012C7.73019 65.9038 5.51903 66.8206 3.88818 68.4505C2.25733 70.0803 1.33999 72.2901 1.33738 74.5951V137.79C1.33999 140.094 2.25735 142.304 3.88819 143.934C5.51904 145.564 7.73019 146.481 10.0366 146.483H185.38C186.122 146.484 186.856 146.639 187.535 146.937C188.214 147.236 188.824 147.672 189.326 148.218L222.507 184.394C222.735 184.643 223.033 184.816 223.361 184.893C223.69 184.969 224.033 184.945 224.348 184.823C224.662 184.701 224.932 184.487 225.122 184.208C225.312 183.93 225.414 183.601 225.414 183.264V151.833C225.416 150.415 225.98 149.055 226.984 148.052C227.987 147.049 229.348 146.485 230.767 146.483H237.207C239.514 146.481 241.725 145.564 243.356 143.934C244.987 142.304 245.904 140.094 245.907 137.79V74.5951C245.904 72.2901 244.987 70.0803 243.356 68.4505C241.725 66.8206 239.514 65.9038 237.207 65.9012H10.0366Z" fill="#3F3D56"/>
<path d="M24.6185 92.4416C29.4689 92.4416 33.4009 88.5119 33.4009 83.6645C33.4009 78.8171 29.4689 74.8875 24.6185 74.8875C19.7681 74.8875 15.8361 78.8171 15.8361 83.6645C15.8361 88.5119 19.7681 92.4416 24.6185 92.4416Z" fill="#6C63FF"/>
<path d="M226.961 132.231H20.2827C19.6671 132.231 19.0574 132.111 18.4885 131.876C17.9196 131.641 17.4025 131.296 16.967 130.862C16.5315 130.427 16.186 129.911 15.9502 129.342C15.7145 128.774 15.5931 128.165 15.5931 127.55C15.5931 126.934 15.7145 126.325 15.9502 125.757C16.186 125.189 16.5315 124.672 16.967 124.238C17.4025 123.803 17.9196 123.458 18.4885 123.223C19.0574 122.988 19.6671 122.868 20.2827 122.869H226.961C228.203 122.87 229.393 123.364 230.27 124.242C231.147 125.119 231.64 126.309 231.64 127.55C231.64 128.79 231.147 129.98 230.27 130.858C229.393 131.735 228.203 132.229 226.961 132.231Z" fill="#E6E6E6"/>
<path d="M371.167 400.587C370.601 400.369 370.113 399.985 369.771 399.484C369.428 398.983 369.246 398.39 369.248 397.783V366.351C369.247 365.287 368.824 364.268 368.071 363.515C367.318 362.763 366.298 362.34 365.233 362.338H358.793C356.132 362.335 353.581 361.278 351.699 359.397C349.817 357.517 348.759 354.967 348.756 352.308V289.114C348.759 286.454 349.817 283.905 351.699 282.024C353.581 280.144 356.132 279.086 358.793 279.083H585.963C588.624 279.086 591.175 280.144 593.057 282.024C594.939 283.905 595.997 286.454 596 289.114V352.308C595.997 354.967 594.939 357.517 593.057 359.397C591.175 361.278 588.624 362.335 585.963 362.338H410.62C410.063 362.339 409.513 362.455 409.003 362.679C408.494 362.903 408.037 363.23 407.66 363.64L374.478 399.816C374.198 400.124 373.857 400.37 373.476 400.539C373.095 400.707 372.683 400.794 372.267 400.795C371.891 400.794 371.518 400.724 371.167 400.587Z" fill="white"/>
<path d="M371.167 400.587C370.601 400.369 370.113 399.985 369.771 399.484C369.428 398.983 369.246 398.39 369.248 397.783V366.351C369.247 365.287 368.824 364.268 368.071 363.515C367.318 362.763 366.298 362.34 365.233 362.338H358.793C356.132 362.335 353.581 361.278 351.699 359.397C349.817 357.517 348.759 354.967 348.756 352.308V289.114C348.759 286.454 349.817 283.905 351.699 282.024C353.581 280.144 356.132 279.086 358.793 279.083H585.963C588.624 279.086 591.175 280.144 593.057 282.024C594.939 283.905 595.997 286.454 596 289.114V352.308C595.997 354.967 594.939 357.517 593.057 359.397C591.175 361.278 588.624 362.335 585.963 362.338H410.62C410.063 362.339 409.513 362.455 409.003 362.679C408.494 362.903 408.037 363.23 407.66 363.64L374.478 399.816C374.198 400.124 373.857 400.37 373.476 400.539C373.095 400.707 372.683 400.794 372.267 400.795C371.891 400.794 371.518 400.724 371.167 400.587ZM358.793 280.42C356.486 280.422 354.275 281.339 352.644 282.969C351.013 284.599 350.096 286.809 350.093 289.114V352.308C350.096 354.613 351.013 356.823 352.644 358.453C354.275 360.083 356.486 360.999 358.793 361.002H365.233C366.652 361.003 368.013 361.568 369.016 362.571C370.02 363.573 370.584 364.933 370.586 366.351V397.783C370.586 398.12 370.687 398.449 370.878 398.727C371.068 399.005 371.338 399.219 371.652 399.341C371.967 399.463 372.31 399.488 372.639 399.411C372.967 399.335 373.265 399.161 373.493 398.913L406.674 362.737C407.176 362.191 407.786 361.754 408.465 361.456C409.144 361.157 409.878 361.003 410.62 361.002H585.963C588.27 360.999 590.481 360.082 592.112 358.453C593.743 356.823 594.66 354.613 594.663 352.308V289.114C594.66 286.809 593.743 284.599 592.112 282.969C590.481 281.339 588.27 280.422 585.963 280.42H358.793Z" fill="#3F3D56"/>
<path d="M300.361 420.156C291.045 426.118 280.251 429.369 269.191 429.544C258.13 429.72 247.239 426.814 237.738 421.152C239.409 418.042 241.527 415.194 244.024 412.698C247.876 408.829 252.564 405.895 257.729 404.12C262.893 402.345 268.396 401.777 273.814 402.459C279.232 403.141 284.422 405.055 288.985 408.055C293.547 411.054 297.361 415.059 300.133 419.762C300.207 419.889 300.287 420.022 300.361 420.156Z" fill="#6C63FF"/>
<path d="M266.435 388.198C282.758 388.198 295.992 374.973 295.992 358.659C295.992 342.345 282.758 329.12 266.435 329.12C250.111 329.12 236.877 342.345 236.877 358.659C236.877 374.973 250.111 388.198 266.435 388.198Z" fill="#2F2E41"/>
<path d="M288.428 379.494C294.255 368.84 290.337 355.482 279.677 349.658C269.016 343.834 255.65 347.749 249.822 358.404C243.995 369.058 247.913 382.416 258.573 388.24C269.234 394.064 282.6 390.149 288.428 379.494Z" fill="#FFB8B8"/>
<path d="M246.01 355.12C251.037 358.583 257.003 360.426 263.109 360.401C260.931 361.911 258.451 362.93 255.841 363.389C263.959 365.13 272.348 365.177 280.485 363.528C282.294 363.238 284.039 362.639 285.644 361.757C286.444 361.311 287.141 360.701 287.689 359.968C288.238 359.234 288.626 358.394 288.828 357.501C289.369 354.414 286.962 351.61 284.461 349.72C280.631 346.87 276.216 344.907 271.534 343.972C266.852 343.037 262.021 343.153 257.39 344.313C254.366 345.095 251.336 346.414 249.372 348.841C247.408 351.269 246.826 355.01 248.697 357.509L246.01 355.12Z" fill="#2F2E41"/>
<path d="M268.243 430.22C253.768 430.216 239.779 424.995 228.844 415.517C217.908 406.039 210.758 392.938 208.706 378.617C206.654 364.296 209.837 349.716 217.672 337.552C225.506 325.387 237.467 316.453 251.359 312.389C265.251 308.324 280.144 309.402 293.306 315.424C306.468 321.446 317.016 332.008 323.015 345.174C329.014 358.34 330.063 373.226 325.968 387.102C321.873 400.978 312.91 412.913 300.722 420.718C291.03 426.929 279.757 430.227 268.243 430.22ZM268.243 311.266C256.603 311.265 245.224 314.713 235.546 321.176C225.867 327.638 218.323 336.823 213.868 347.57C209.413 358.318 208.247 370.144 210.518 381.553C212.789 392.962 218.394 403.443 226.624 411.668C234.855 419.894 245.342 425.496 256.758 427.765C268.174 430.034 280.008 428.869 290.761 424.417C301.515 419.964 310.706 412.425 317.172 402.752C323.638 393.08 327.089 381.708 327.088 370.075C327.07 354.483 320.865 339.535 309.833 328.51C298.802 317.485 283.844 311.284 268.243 311.266Z" fill="#3F3D56"/>
<path d="M377.018 306.292C381.868 306.292 385.8 302.362 385.8 297.515C385.8 292.667 381.868 288.738 377.018 288.738C372.168 288.738 368.236 292.667 368.236 297.515C368.236 302.362 372.168 306.292 377.018 306.292Z" fill="#6C63FF"/>
<path d="M512.029 326.186H372.682C372.067 326.187 371.457 326.067 370.888 325.832C370.319 325.597 369.802 325.252 369.367 324.817C368.931 324.383 368.586 323.866 368.35 323.298C368.114 322.73 367.993 322.121 367.993 321.505C367.993 320.89 368.114 320.281 368.35 319.713C368.586 319.144 368.931 318.628 369.367 318.193C369.802 317.759 370.319 317.414 370.888 317.179C371.457 316.944 372.067 316.823 372.682 316.824H512.029C513.271 316.826 514.461 317.32 515.338 318.197C516.215 319.075 516.708 320.265 516.708 321.505C516.708 322.746 516.215 323.936 515.338 324.813C514.461 325.691 513.271 326.185 512.029 326.186Z" fill="#E6E6E6"/>
<path d="M370.885 406.57C379.934 406.57 387.27 405.756 387.27 404.752C387.27 403.749 379.934 402.935 370.885 402.935C361.835 402.935 354.499 403.749 354.499 404.752C354.499 405.756 361.835 406.57 370.885 406.57Z" fill="#F2F2F2"/>
<path d="M224.441 192.72C233.491 192.72 240.827 191.906 240.827 190.902C240.827 189.898 233.491 189.085 224.441 189.085C215.392 189.085 208.056 189.898 208.056 190.902C208.056 191.906 215.392 192.72 224.441 192.72Z" fill="#F2F2F2"/>
</svg>
