<svg width="69" height="72" viewBox="0 0 69 72" fill="none" xmlns="http://www.w3.org/2000/svg">
<path fill-rule="evenodd" clip-rule="evenodd" d="M43.0658 16.0182L47.4621 5.79031C59.9709 10.6699 68.8037 22.566 68.8037 36.4671C68.8037 54.7162 53.5814 69.5099 34.8037 69.5099C30.9646 69.5099 27.2741 68.8915 23.8319 67.7517L31.7837 58.2724C32.78 58.4028 33.7969 58.4701 34.83 58.4701C47.3194 58.4701 57.4441 48.6305 57.4441 36.4927C57.4441 27.1789 51.4827 19.2184 43.0658 16.0182ZM35.7205 14.532C35.4251 14.5209 35.1282 14.5152 34.83 14.5152C22.3406 14.5152 12.2159 24.3549 12.2159 36.4927C12.2159 45.6646 17.9972 53.5242 26.2114 56.8176L21.0411 66.6909C9.11988 61.5563 0.803711 49.9555 0.803711 36.4671C0.803711 18.2181 16.026 3.42432 34.8037 3.42432C37.9839 3.42432 41.0622 3.84865 43.9817 4.64224L35.7205 14.532Z" fill="#FF6E43"/>
<path fill-rule="evenodd" clip-rule="evenodd" d="M20.2297 34.9215L48.992 0L35.3366 31.4672L50.4842 34.9215L19.5791 71.3176L37.0629 38.3655L20.2297 34.9215Z" fill="#FF6E43"/>
</svg>
